# xmcd CD database file
#
# Track frame offsets:
#	150
#	39866
#	82124
#	112697
#	160156
#	213187
#	242210
#	265692
#	293653
#	309002
#
# Disc length: 4438 seconds
#
# Revision: 0
# Processed by: cddbd v1.5.1PL0 Copyright (c) Steve Scherf et al.
# Submitted via: CDex 1.51
#
DISCID=7311540a
DTITLE=Bamboleo - Ño Que Bueno Esta 
DYEAR=1900
DGENRE=Salsa
TTITLE0=El Protagonista
TTITLE1=Recapactia
TTITLE2=Sin Requisitos
TTITLE3=Yo No Me Parezco a Nadie
TTITLE4=No Que Bueno Esta! [Pistol Pete Lorimer Visits Habana Mix]
TTITLE5=Lo Que Quiero Es Bamboleo [Crispy Cream Club Mix]
TTITLE6=Ño Que Bueno Esta! [Live Studio Party Mix]
TTITLE7=Ño Que Bueno Esta! [Crispy Cream Club Mix]
TTITLE8=Ño Que Bueno Esta! [Hip Hop Mix]
TTITLE9=Ño Que Bueno Esta! [Chemical House Mix]
EXTD=
EXTT0=
EXTT1=
EXTT2=
EXTT3=
EXTT4=
EXTT5=
EXTT6=
EXTT7=
EXTT8=
EXTT9=
PLAYORDER=
